<?xml version="1.0" encoding="UTF-8"?>
<!DOCTYPE svg
PUBLIC "-//W3C//DTD SVG 1.1//EN"
       "http://www.w3.org/Graphics/SVG/1.1/DTD/svg11.dtd">
<svg viewBox="112 85 999 2197" width="887px" height="2112px" xmlns="http://www.w3.org/2000/svg" version="1.1">
   <line x1="466" y1="152" x2="456" y2="152" style="stroke:#333;stroke-width:1;"/>
   <line x1="261" y1="130" x2="251" y2="130" style="stroke:#333;stroke-width:1;"/>
   <line x1="456" y1="152" x2="261" y2="130" style="stroke:#333;stroke-width:1;"/>
   <line x1="458.5" y1="152" x2="462.03553390593" y2="155.53553390593" style="stroke:#333;stroke-width:2;"/>
   <line x1="458.5" y1="152" x2="462.03553390593" y2="148.46446609407" style="stroke:#333;stroke-width:2;"/>
   <line x1="256" y1="130" x2="259.53553390593" y2="133.53553390593" style="stroke:#333;stroke-width:2;"/>
   <line x1="256" y1="130" x2="259.53553390593" y2="126.46446609407" style="stroke:#333;stroke-width:2;"/>
   <line x1="822" y1="2152" x2="812" y2="2152" style="stroke:#b0b;stroke-width:1;"/>
   <line x1="613" y1="132" x2="603" y2="132" style="stroke:#b0b;stroke-width:1;"/>
   <line x1="812" y1="2152" x2="613" y2="132" style="stroke:#b0b;stroke-width:1;"/>
   <line x1="814.5" y1="2152" x2="818.03553390593" y2="2155.5355339059" style="stroke:#b0b;stroke-width:2;"/>
   <line x1="814.5" y1="2152" x2="818.03553390593" y2="2148.4644660941" style="stroke:#b0b;stroke-width:2;"/>
   <line x1="608" y1="132" x2="611.53553390593" y2="135.53553390593" style="stroke:#b0b;stroke-width:2;"/>
   <line x1="608" y1="132" x2="611.53553390593" y2="128.46446609407" style="stroke:#b0b;stroke-width:2;"/>
   <line x1="822" y1="2172" x2="812" y2="2172" style="stroke:#bbb;stroke-width:1;"/>
   <line x1="261" y1="130" x2="251" y2="130" style="stroke:#bbb;stroke-width:1;"/>
   <line x1="812" y1="2172" x2="261" y2="130" style="stroke:#bbb;stroke-width:1;"/>
   <line x1="814.5" y1="2172" x2="818.03553390593" y2="2175.5355339059" style="stroke:#bbb;stroke-width:2;"/>
   <line x1="814.5" y1="2172" x2="818.03553390593" y2="2168.4644660941" style="stroke:#bbb;stroke-width:2;"/>
   <line x1="256" y1="130" x2="259.53553390593" y2="133.53553390593" style="stroke:#bbb;stroke-width:2;"/>
   <line x1="256" y1="130" x2="259.53553390593" y2="126.46446609407" style="stroke:#bbb;stroke-width:2;"/>
   <line x1="246" y1="493" x2="256" y2="493" style="stroke:#cb0;stroke-width:1;"/>
   <line x1="261" y1="130" x2="251" y2="130" style="stroke:#cb0;stroke-width:1;"/>
   <line x1="256" y1="493" x2="261" y2="130" style="stroke:#cb0;stroke-width:1;"/>
   <line x1="253.5" y1="493" x2="249.96446609407" y2="496.53553390593" style="stroke:#cb0;stroke-width:2;"/>
   <line x1="253.5" y1="493" x2="249.96446609407" y2="489.46446609407" style="stroke:#cb0;stroke-width:2;"/>
   <line x1="256" y1="130" x2="259.53553390593" y2="133.53553390593" style="stroke:#cb0;stroke-width:2;"/>
   <line x1="256" y1="130" x2="259.53553390593" y2="126.46446609407" style="stroke:#cb0;stroke-width:2;"/>
   <rect width="137" height="20" x="466" y="102" style="fill:#007;stroke:black;"/>
   <text width="137" height="20" x="471" y="116" style="fill:#fff;" font-family="Arial" font-size="16px"> competitions</text>
   <rect width="137" height="20" x="466" y="122" style="fill:none;stroke:black;"/>
   <text width="137" height="20" x="471" y="136" style="fill:black;" font-family="Arial" font-size="16px">comp_id</text>
   <rect width="137" height="20" x="466" y="142" style="fill:none;stroke:black;"/>
   <text width="137" height="20" x="471" y="156" style="fill:black;" font-family="Arial" font-size="16px">users_id</text>
   <rect width="137" height="20" x="466" y="162" style="fill:none;stroke:black;"/>
   <text width="137" height="20" x="471" y="176" style="fill:black;" font-family="Arial" font-size="16px">competition_name</text>
   <rect width="137" height="20" x="466" y="182" style="fill:none;stroke:black;"/>
   <text width="137" height="20" x="471" y="196" style="fill:black;" font-family="Arial" font-size="16px">country</text>
   <rect width="137" height="20" x="466" y="202" style="fill:none;stroke:black;"/>
   <text width="137" height="20" x="471" y="216" style="fill:black;" font-family="Arial" font-size="16px">city</text>
   <rect width="137" height="20" x="466" y="222" style="fill:none;stroke:black;"/>
   <text width="137" height="20" x="471" y="236" style="fill:black;" font-family="Arial" font-size="16px">start_date</text>
   <rect width="137" height="20" x="466" y="242" style="fill:none;stroke:black;"/>
   <text width="137" height="20" x="471" y="256" style="fill:black;" font-family="Arial" font-size="16px">end_date</text>
   <rect width="137" height="20" x="466" y="262" style="fill:none;stroke:black;"/>
   <text width="137" height="20" x="471" y="276" style="fill:black;" font-family="Arial" font-size="16px">division</text>
   <rect width="137" height="20" x="466" y="282" style="fill:none;stroke:black;"/>
   <text width="137" height="20" x="471" y="296" style="fill:black;" font-family="Arial" font-size="16px">age_group</text>
   <rect width="137" height="20" x="466" y="302" style="fill:none;stroke:black;"/>
   <text width="137" height="20" x="471" y="316" style="fill:black;" font-family="Arial" font-size="16px">sex</text>
   <rect width="137" height="20" x="466" y="322" style="fill:none;stroke:black;"/>
   <text width="137" height="20" x="471" y="336" style="fill:black;" font-family="Arial" font-size="16px">type</text>
   <rect width="137" height="20" x="466" y="342" style="fill:none;stroke:black;"/>
   <text width="137" height="20" x="471" y="356" style="fill:black;" font-family="Arial" font-size="16px">categories</text>
   <rect width="137" height="20" x="466" y="362" style="fill:none;stroke:black;"/>
   <text width="137" height="20" x="471" y="376" style="fill:black;" font-family="Arial" font-size="16px">nomination</text>
   <rect width="137" height="20" x="466" y="382" style="fill:none;stroke:black;"/>
   <text width="137" height="20" x="471" y="396" style="fill:black;" font-family="Arial" font-size="16px">preliminary</text>
   <rect width="137" height="20" x="466" y="402" style="fill:none;stroke:black;"/>
   <text width="137" height="20" x="471" y="416" style="fill:black;" font-family="Arial" font-size="16px">final</text>
   <rect width="124" height="20" x="129" y="572" style="fill:#007;stroke:black;"/>
   <text width="124" height="20" x="134" y="586" style="fill:#fff;" font-family="Arial" font-size="16px"> computer_status</text>
   <rect width="124" height="20" x="129" y="592" style="fill:#aea;stroke:black;"/>
   <text width="124" height="20" x="134" y="606" style="fill:black;" font-family="Arial" font-size="16px">id_status</text>
   <rect width="124" height="20" x="129" y="612" style="fill:none;stroke:black;"/>
   <text width="124" height="20" x="134" y="626" style="fill:black;" font-family="Arial" font-size="16px">users_ID</text>
   <rect width="124" height="20" x="129" y="632" style="fill:none;stroke:black;"/>
   <text width="124" height="20" x="134" y="646" style="fill:black;" font-family="Arial" font-size="16px">comp_status</text>
   <rect width="124" height="20" x="129" y="652" style="fill:none;stroke:black;"/>
   <text width="124" height="20" x="134" y="666" style="fill:black;" font-family="Arial" font-size="16px">comp_id</text>
   <rect width="124" height="20" x="129" y="672" style="fill:none;stroke:black;"/>
   <text width="124" height="20" x="134" y="686" style="fill:black;" font-family="Arial" font-size="16px">sessions_name</text>
   <rect width="124" height="20" x="129" y="692" style="fill:none;stroke:black;"/>
   <text width="124" height="20" x="134" y="706" style="fill:black;" font-family="Arial" font-size="16px">discipline</text>
   <rect width="124" height="20" x="129" y="712" style="fill:none;stroke:black;"/>
   <text width="124" height="20" x="134" y="726" style="fill:black;" font-family="Arial" font-size="16px">attempt</text>
   <rect width="124" height="20" x="129" y="732" style="fill:none;stroke:black;"/>
   <text width="124" height="20" x="134" y="746" style="fill:black;" font-family="Arial" font-size="16px">users_status</text>
   <rect width="124" height="20" x="129" y="752" style="fill:none;stroke:black;"/>
   <text width="124" height="20" x="134" y="766" style="fill:black;" font-family="Arial" font-size="16px">lang</text>
   <rect width="124" height="20" x="129" y="772" style="fill:none;stroke:black;"/>
   <text width="124" height="20" x="134" y="786" style="fill:black;" font-family="Arial" font-size="16px">grp_page</text>
   <rect width="124" height="20" x="129" y="792" style="fill:none;stroke:black;"/>
   <text width="124" height="20" x="134" y="806" style="fill:black;" font-family="Arial" font-size="16px">realtime</text>
   <rect width="124" height="20" x="129" y="812" style="fill:none;stroke:black;"/>
   <text width="124" height="20" x="134" y="826" style="fill:black;" font-family="Arial" font-size="16px">ip_address</text>
   <rect width="124" height="20" x="129" y="832" style="fill:none;stroke:black;"/>
   <text width="124" height="20" x="134" y="846" style="fill:black;" font-family="Arial" font-size="16px">user_agent</text>
   <rect width="205" height="20" x="130" y="1065" style="fill:#007;stroke:black;"/>
   <text width="205" height="20" x="135" y="1079" style="fill:#fff;" font-family="Arial" font-size="16px"> doctrine_migration_versions</text>
   <rect width="205" height="20" x="130" y="1085" style="fill:none;stroke:black;"/>
   <text width="205" height="20" x="135" y="1099" style="fill:black;" font-family="Arial" font-size="16px">version</text>
   <rect width="205" height="20" x="130" y="1105" style="fill:none;stroke:black;"/>
   <text width="205" height="20" x="135" y="1119" style="fill:black;" font-family="Arial" font-size="16px">executed_at</text>
   <rect width="205" height="20" x="130" y="1125" style="fill:none;stroke:black;"/>
   <text width="205" height="20" x="135" y="1139" style="fill:black;" font-family="Arial" font-size="16px">execution_time</text>
   <rect width="162" height="20" x="822" y="102" style="fill:#007;stroke:black;"/>
   <text width="162" height="20" x="827" y="116" style="fill:#fff;" font-family="Arial" font-size="16px"> main_table</text>
   <rect width="162" height="20" x="822" y="122" style="fill:#aea;stroke:black;"/>
   <text width="162" height="20" x="827" y="136" style="fill:black;" font-family="Arial" font-size="16px">main_id</text>
   <rect width="162" height="20" x="822" y="142" style="fill:none;stroke:black;"/>
   <text width="162" height="20" x="827" y="156" style="fill:black;" font-family="Arial" font-size="16px">surname_name</text>
   <rect width="162" height="20" x="822" y="162" style="fill:none;stroke:black;"/>
   <text width="162" height="20" x="827" y="176" style="fill:black;" font-family="Arial" font-size="16px">date_of_birth</text>
   <rect width="162" height="20" x="822" y="182" style="fill:none;stroke:black;"/>
   <text width="162" height="20" x="827" y="196" style="fill:black;" font-family="Arial" font-size="16px">bodyweight</text>
   <rect width="162" height="20" x="822" y="202" style="fill:none;stroke:black;"/>
   <text width="162" height="20" x="827" y="216" style="fill:black;" font-family="Arial" font-size="16px">category</text>
   <rect width="162" height="20" x="822" y="222" style="fill:none;stroke:black;"/>
   <text width="162" height="20" x="827" y="236" style="fill:black;" font-family="Arial" font-size="16px">category_num</text>
   <rect width="162" height="20" x="822" y="242" style="fill:none;stroke:black;"/>
   <text width="162" height="20" x="827" y="256" style="fill:black;" font-family="Arial" font-size="16px">grp</text>
   <rect width="162" height="20" x="822" y="262" style="fill:none;stroke:black;"/>
   <text width="162" height="20" x="827" y="276" style="fill:black;" font-family="Arial" font-size="16px">lot</text>
   <rect width="162" height="20" x="822" y="282" style="fill:none;stroke:black;"/>
   <text width="162" height="20" x="827" y="296" style="fill:black;" font-family="Arial" font-size="16px">rank_class</text>
   <rect width="162" height="20" x="822" y="302" style="fill:none;stroke:black;"/>
   <text width="162" height="20" x="827" y="316" style="fill:black;" font-family="Arial" font-size="16px">region</text>
   <rect width="162" height="20" x="822" y="322" style="fill:none;stroke:black;"/>
   <text width="162" height="20" x="827" y="336" style="fill:black;" font-family="Arial" font-size="16px">city</text>
   <rect width="162" height="20" x="822" y="342" style="fill:none;stroke:black;"/>
   <text width="162" height="20" x="827" y="356" style="fill:black;" font-family="Arial" font-size="16px">club</text>
   <rect width="162" height="20" x="822" y="362" style="fill:none;stroke:black;"/>
   <text width="162" height="20" x="827" y="376" style="fill:black;" font-family="Arial" font-size="16px">trener_1</text>
   <rect width="162" height="20" x="822" y="382" style="fill:none;stroke:black;"/>
   <text width="162" height="20" x="827" y="396" style="fill:black;" font-family="Arial" font-size="16px">trener_2</text>
   <rect width="162" height="20" x="822" y="402" style="fill:none;stroke:black;"/>
   <text width="162" height="20" x="827" y="416" style="fill:black;" font-family="Arial" font-size="16px">trener_3</text>
   <rect width="162" height="20" x="822" y="422" style="fill:none;stroke:black;"/>
   <text width="162" height="20" x="827" y="436" style="fill:black;" font-family="Arial" font-size="16px">trener_4</text>
   <rect width="162" height="20" x="822" y="442" style="fill:none;stroke:black;"/>
   <text width="162" height="20" x="827" y="456" style="fill:black;" font-family="Arial" font-size="16px">titles</text>
   <rect width="162" height="20" x="822" y="462" style="fill:none;stroke:black;"/>
   <text width="162" height="20" x="827" y="476" style="fill:black;" font-family="Arial" font-size="16px">personally</text>
   <rect width="162" height="20" x="822" y="482" style="fill:none;stroke:black;"/>
   <text width="162" height="20" x="827" y="496" style="fill:black;" font-family="Arial" font-size="16px">out_of_comp</text>
   <rect width="162" height="20" x="822" y="502" style="fill:none;stroke:black;"/>
   <text width="162" height="20" x="827" y="516" style="fill:black;" font-family="Arial" font-size="16px">md</text>
   <rect width="162" height="20" x="822" y="522" style="fill:none;stroke:black;"/>
   <text width="162" height="20" x="827" y="536" style="fill:black;" font-family="Arial" font-size="16px">dbl</text>
   <rect width="162" height="20" x="822" y="542" style="fill:none;stroke:black;"/>
   <text width="162" height="20" x="827" y="556" style="fill:black;" font-family="Arial" font-size="16px">squat_nom</text>
   <rect width="162" height="20" x="822" y="562" style="fill:none;stroke:black;"/>
   <text width="162" height="20" x="827" y="576" style="fill:black;" font-family="Arial" font-size="16px">bench_press_nom</text>
   <rect width="162" height="20" x="822" y="582" style="fill:none;stroke:black;"/>
   <text width="162" height="20" x="827" y="596" style="fill:black;" font-family="Arial" font-size="16px">deadlift_nom</text>
   <rect width="162" height="20" x="822" y="602" style="fill:none;stroke:black;"/>
   <text width="162" height="20" x="827" y="616" style="fill:black;" font-family="Arial" font-size="16px">total_nom</text>
   <rect width="162" height="20" x="822" y="622" style="fill:none;stroke:black;"/>
   <text width="162" height="20" x="827" y="636" style="fill:black;" font-family="Arial" font-size="16px">squat_1</text>
   <rect width="162" height="20" x="822" y="642" style="fill:none;stroke:black;"/>
   <text width="162" height="20" x="827" y="656" style="fill:black;" font-family="Arial" font-size="16px">squat_1_res</text>
   <rect width="162" height="20" x="822" y="662" style="fill:none;stroke:black;"/>
   <text width="162" height="20" x="827" y="676" style="fill:black;" font-family="Arial" font-size="16px">squat_1_css</text>
   <rect width="162" height="20" x="822" y="682" style="fill:none;stroke:black;"/>
   <text width="162" height="20" x="827" y="696" style="fill:black;" font-family="Arial" font-size="16px">squat_1_fcst</text>
   <rect width="162" height="20" x="822" y="702" style="fill:none;stroke:black;"/>
   <text width="162" height="20" x="827" y="716" style="fill:black;" font-family="Arial" font-size="16px">squat_2</text>
   <rect width="162" height="20" x="822" y="722" style="fill:none;stroke:black;"/>
   <text width="162" height="20" x="827" y="736" style="fill:black;" font-family="Arial" font-size="16px">squat_2_res</text>
   <rect width="162" height="20" x="822" y="742" style="fill:none;stroke:black;"/>
   <text width="162" height="20" x="827" y="756" style="fill:black;" font-family="Arial" font-size="16px">squat_2_css</text>
   <rect width="162" height="20" x="822" y="762" style="fill:none;stroke:black;"/>
   <text width="162" height="20" x="827" y="776" style="fill:black;" font-family="Arial" font-size="16px">squat_2_fcst</text>
   <rect width="162" height="20" x="822" y="782" style="fill:none;stroke:black;"/>
   <text width="162" height="20" x="827" y="796" style="fill:black;" font-family="Arial" font-size="16px">squat_3</text>
   <rect width="162" height="20" x="822" y="802" style="fill:none;stroke:black;"/>
   <text width="162" height="20" x="827" y="816" style="fill:black;" font-family="Arial" font-size="16px">squat_3_res</text>
   <rect width="162" height="20" x="822" y="822" style="fill:none;stroke:black;"/>
   <text width="162" height="20" x="827" y="836" style="fill:black;" font-family="Arial" font-size="16px">squat_3_css</text>
   <rect width="162" height="20" x="822" y="842" style="fill:none;stroke:black;"/>
   <text width="162" height="20" x="827" y="856" style="fill:black;" font-family="Arial" font-size="16px">squat_3_fcst</text>
   <rect width="162" height="20" x="822" y="862" style="fill:none;stroke:black;"/>
   <text width="162" height="20" x="827" y="876" style="fill:black;" font-family="Arial" font-size="16px">squat_4</text>
   <rect width="162" height="20" x="822" y="882" style="fill:none;stroke:black;"/>
   <text width="162" height="20" x="827" y="896" style="fill:black;" font-family="Arial" font-size="16px">squat_4_res</text>
   <rect width="162" height="20" x="822" y="902" style="fill:none;stroke:black;"/>
   <text width="162" height="20" x="827" y="916" style="fill:black;" font-family="Arial" font-size="16px">squat_4_css</text>
   <rect width="162" height="20" x="822" y="922" style="fill:none;stroke:black;"/>
   <text width="162" height="20" x="827" y="936" style="fill:black;" font-family="Arial" font-size="16px">squat_4_fcst</text>
   <rect width="162" height="20" x="822" y="942" style="fill:none;stroke:black;"/>
   <text width="162" height="20" x="827" y="956" style="fill:black;" font-family="Arial" font-size="16px">squat_res</text>
   <rect width="162" height="20" x="822" y="962" style="fill:none;stroke:black;"/>
   <text width="162" height="20" x="827" y="976" style="fill:black;" font-family="Arial" font-size="16px">squat_fcst</text>
   <rect width="162" height="20" x="822" y="982" style="fill:none;stroke:black;"/>
   <text width="162" height="20" x="827" y="996" style="fill:black;" font-family="Arial" font-size="16px">bench_press_1</text>
   <rect width="162" height="20" x="822" y="1002" style="fill:none;stroke:black;"/>
   <text width="162" height="20" x="827" y="1016" style="fill:black;" font-family="Arial" font-size="16px">bench_press_1_res</text>
   <rect width="162" height="20" x="822" y="1022" style="fill:none;stroke:black;"/>
   <text width="162" height="20" x="827" y="1036" style="fill:black;" font-family="Arial" font-size="16px">bench_press_1_css</text>
   <rect width="162" height="20" x="822" y="1042" style="fill:none;stroke:black;"/>
   <text width="162" height="20" x="827" y="1056" style="fill:black;" font-family="Arial" font-size="16px">bench_press_1_fcst</text>
   <rect width="162" height="20" x="822" y="1062" style="fill:none;stroke:black;"/>
   <text width="162" height="20" x="827" y="1076" style="fill:black;" font-family="Arial" font-size="16px">bench_press_2</text>
   <rect width="162" height="20" x="822" y="1082" style="fill:none;stroke:black;"/>
   <text width="162" height="20" x="827" y="1096" style="fill:black;" font-family="Arial" font-size="16px">bench_press_2_res</text>
   <rect width="162" height="20" x="822" y="1102" style="fill:none;stroke:black;"/>
   <text width="162" height="20" x="827" y="1116" style="fill:black;" font-family="Arial" font-size="16px">bench_press_2_css</text>
   <rect width="162" height="20" x="822" y="1122" style="fill:none;stroke:black;"/>
   <text width="162" height="20" x="827" y="1136" style="fill:black;" font-family="Arial" font-size="16px">bench_press_2_fcst</text>
   <rect width="162" height="20" x="822" y="1142" style="fill:none;stroke:black;"/>
   <text width="162" height="20" x="827" y="1156" style="fill:black;" font-family="Arial" font-size="16px">bench_press_3</text>
   <rect width="162" height="20" x="822" y="1162" style="fill:none;stroke:black;"/>
   <text width="162" height="20" x="827" y="1176" style="fill:black;" font-family="Arial" font-size="16px">bench_press_3_res</text>
   <rect width="162" height="20" x="822" y="1182" style="fill:none;stroke:black;"/>
   <text width="162" height="20" x="827" y="1196" style="fill:black;" font-family="Arial" font-size="16px">bench_press_3_css</text>
   <rect width="162" height="20" x="822" y="1202" style="fill:none;stroke:black;"/>
   <text width="162" height="20" x="827" y="1216" style="fill:black;" font-family="Arial" font-size="16px">bench_press_3_fcst</text>
   <rect width="162" height="20" x="822" y="1222" style="fill:none;stroke:black;"/>
   <text width="162" height="20" x="827" y="1236" style="fill:black;" font-family="Arial" font-size="16px">bench_press_4</text>
   <rect width="162" height="20" x="822" y="1242" style="fill:none;stroke:black;"/>
   <text width="162" height="20" x="827" y="1256" style="fill:black;" font-family="Arial" font-size="16px">bench_press_4_res</text>
   <rect width="162" height="20" x="822" y="1262" style="fill:none;stroke:black;"/>
   <text width="162" height="20" x="827" y="1276" style="fill:black;" font-family="Arial" font-size="16px">bench_press_4_css</text>
   <rect width="162" height="20" x="822" y="1282" style="fill:none;stroke:black;"/>
   <text width="162" height="20" x="827" y="1296" style="fill:black;" font-family="Arial" font-size="16px">bench_press_4_fcst</text>
   <rect width="162" height="20" x="822" y="1302" style="fill:none;stroke:black;"/>
   <text width="162" height="20" x="827" y="1316" style="fill:black;" font-family="Arial" font-size="16px">bench_press_res</text>
   <rect width="162" height="20" x="822" y="1322" style="fill:none;stroke:black;"/>
   <text width="162" height="20" x="827" y="1336" style="fill:black;" font-family="Arial" font-size="16px">bench_press_fcst</text>
   <rect width="162" height="20" x="822" y="1342" style="fill:none;stroke:black;"/>
   <text width="162" height="20" x="827" y="1356" style="fill:black;" font-family="Arial" font-size="16px">deadlift_1</text>
   <rect width="162" height="20" x="822" y="1362" style="fill:none;stroke:black;"/>
   <text width="162" height="20" x="827" y="1376" style="fill:black;" font-family="Arial" font-size="16px">deadlift_1_res</text>
   <rect width="162" height="20" x="822" y="1382" style="fill:none;stroke:black;"/>
   <text width="162" height="20" x="827" y="1396" style="fill:black;" font-family="Arial" font-size="16px">deadlift_1_css</text>
   <rect width="162" height="20" x="822" y="1402" style="fill:none;stroke:black;"/>
   <text width="162" height="20" x="827" y="1416" style="fill:black;" font-family="Arial" font-size="16px">deadlift_1_fcst</text>
   <rect width="162" height="20" x="822" y="1422" style="fill:none;stroke:black;"/>
   <text width="162" height="20" x="827" y="1436" style="fill:black;" font-family="Arial" font-size="16px">deadlift_2</text>
   <rect width="162" height="20" x="822" y="1442" style="fill:none;stroke:black;"/>
   <text width="162" height="20" x="827" y="1456" style="fill:black;" font-family="Arial" font-size="16px">deadlift_2_res</text>
   <rect width="162" height="20" x="822" y="1462" style="fill:none;stroke:black;"/>
   <text width="162" height="20" x="827" y="1476" style="fill:black;" font-family="Arial" font-size="16px">deadlift_2_css</text>
   <rect width="162" height="20" x="822" y="1482" style="fill:none;stroke:black;"/>
   <text width="162" height="20" x="827" y="1496" style="fill:black;" font-family="Arial" font-size="16px">deadlift_2_fcst</text>
   <rect width="162" height="20" x="822" y="1502" style="fill:none;stroke:black;"/>
   <text width="162" height="20" x="827" y="1516" style="fill:black;" font-family="Arial" font-size="16px">deadlift_3</text>
   <rect width="162" height="20" x="822" y="1522" style="fill:none;stroke:black;"/>
   <text width="162" height="20" x="827" y="1536" style="fill:black;" font-family="Arial" font-size="16px">deadlift_3_res</text>
   <rect width="162" height="20" x="822" y="1542" style="fill:none;stroke:black;"/>
   <text width="162" height="20" x="827" y="1556" style="fill:black;" font-family="Arial" font-size="16px">deadlift_3_css</text>
   <rect width="162" height="20" x="822" y="1562" style="fill:none;stroke:black;"/>
   <text width="162" height="20" x="827" y="1576" style="fill:black;" font-family="Arial" font-size="16px">deadlift_3_fcst</text>
   <rect width="162" height="20" x="822" y="1582" style="fill:none;stroke:black;"/>
   <text width="162" height="20" x="827" y="1596" style="fill:black;" font-family="Arial" font-size="16px">deadlift_4</text>
   <rect width="162" height="20" x="822" y="1602" style="fill:none;stroke:black;"/>
   <text width="162" height="20" x="827" y="1616" style="fill:black;" font-family="Arial" font-size="16px">deadlift_4_res</text>
   <rect width="162" height="20" x="822" y="1622" style="fill:none;stroke:black;"/>
   <text width="162" height="20" x="827" y="1636" style="fill:black;" font-family="Arial" font-size="16px">deadlift_4_css</text>
   <rect width="162" height="20" x="822" y="1642" style="fill:none;stroke:black;"/>
   <text width="162" height="20" x="827" y="1656" style="fill:black;" font-family="Arial" font-size="16px">deadlift_4_fcst</text>
   <rect width="162" height="20" x="822" y="1662" style="fill:none;stroke:black;"/>
   <text width="162" height="20" x="827" y="1676" style="fill:black;" font-family="Arial" font-size="16px">deadlift_res</text>
   <rect width="162" height="20" x="822" y="1682" style="fill:none;stroke:black;"/>
   <text width="162" height="20" x="827" y="1696" style="fill:black;" font-family="Arial" font-size="16px">deadlift_fcst</text>
   <rect width="162" height="20" x="822" y="1702" style="fill:none;stroke:black;"/>
   <text width="162" height="20" x="827" y="1716" style="fill:black;" font-family="Arial" font-size="16px">total_1_att</text>
   <rect width="162" height="20" x="822" y="1722" style="fill:none;stroke:black;"/>
   <text width="162" height="20" x="827" y="1736" style="fill:black;" font-family="Arial" font-size="16px">total</text>
   <rect width="162" height="20" x="822" y="1742" style="fill:none;stroke:black;"/>
   <text width="162" height="20" x="827" y="1756" style="fill:black;" font-family="Arial" font-size="16px">total_fcst</text>
   <rect width="162" height="20" x="822" y="1762" style="fill:none;stroke:black;"/>
   <text width="162" height="20" x="827" y="1776" style="fill:black;" font-family="Arial" font-size="16px">coef</text>
   <rect width="162" height="20" x="822" y="1782" style="fill:none;stroke:black;"/>
   <text width="162" height="20" x="827" y="1796" style="fill:black;" font-family="Arial" font-size="16px">coef_squat</text>
   <rect width="162" height="20" x="822" y="1802" style="fill:none;stroke:black;"/>
   <text width="162" height="20" x="827" y="1816" style="fill:black;" font-family="Arial" font-size="16px">coef_squat_fcst</text>
   <rect width="162" height="20" x="822" y="1822" style="fill:none;stroke:black;"/>
   <text width="162" height="20" x="827" y="1836" style="fill:black;" font-family="Arial" font-size="16px">coef_bench_press</text>
   <rect width="162" height="20" x="822" y="1842" style="fill:none;stroke:black;"/>
   <text width="162" height="20" x="827" y="1856" style="fill:black;" font-family="Arial" font-size="16px">coef_bench_press_fcst</text>
   <rect width="162" height="20" x="822" y="1862" style="fill:none;stroke:black;"/>
   <text width="162" height="20" x="827" y="1876" style="fill:black;" font-family="Arial" font-size="16px">coef_deadlift</text>
   <rect width="162" height="20" x="822" y="1882" style="fill:none;stroke:black;"/>
   <text width="162" height="20" x="827" y="1896" style="fill:black;" font-family="Arial" font-size="16px">coef_deadlift_fcst</text>
   <rect width="162" height="20" x="822" y="1902" style="fill:none;stroke:black;"/>
   <text width="162" height="20" x="827" y="1916" style="fill:black;" font-family="Arial" font-size="16px">coef_total</text>
   <rect width="162" height="20" x="822" y="1922" style="fill:none;stroke:black;"/>
   <text width="162" height="20" x="827" y="1936" style="fill:black;" font-family="Arial" font-size="16px">coef_total_fcst</text>
   <rect width="162" height="20" x="822" y="1942" style="fill:none;stroke:black;"/>
   <text width="162" height="20" x="827" y="1956" style="fill:black;" font-family="Arial" font-size="16px">squat_rnk</text>
   <rect width="162" height="20" x="822" y="1962" style="fill:none;stroke:black;"/>
   <text width="162" height="20" x="827" y="1976" style="fill:black;" font-family="Arial" font-size="16px">squat_rnk_fcst</text>
   <rect width="162" height="20" x="822" y="1982" style="fill:none;stroke:black;"/>
   <text width="162" height="20" x="827" y="1996" style="fill:black;" font-family="Arial" font-size="16px">bench_press_rnk</text>
   <rect width="162" height="20" x="822" y="2002" style="fill:none;stroke:black;"/>
   <text width="162" height="20" x="827" y="2016" style="fill:black;" font-family="Arial" font-size="16px">bench_press_rnk_fcst</text>
   <rect width="162" height="20" x="822" y="2022" style="fill:none;stroke:black;"/>
   <text width="162" height="20" x="827" y="2036" style="fill:black;" font-family="Arial" font-size="16px">deadlift_rnk</text>
   <rect width="162" height="20" x="822" y="2042" style="fill:none;stroke:black;"/>
   <text width="162" height="20" x="827" y="2056" style="fill:black;" font-family="Arial" font-size="16px">deadlift_rnk_fcst</text>
   <rect width="162" height="20" x="822" y="2062" style="fill:none;stroke:black;"/>
   <text width="162" height="20" x="827" y="2076" style="fill:black;" font-family="Arial" font-size="16px">ranking</text>
   <rect width="162" height="20" x="822" y="2082" style="fill:none;stroke:black;"/>
   <text width="162" height="20" x="827" y="2096" style="fill:black;" font-family="Arial" font-size="16px">rnk_fcst</text>
   <rect width="162" height="20" x="822" y="2102" style="fill:none;stroke:black;"/>
   <text width="162" height="20" x="827" y="2116" style="fill:black;" font-family="Arial" font-size="16px">points</text>
   <rect width="162" height="20" x="822" y="2122" style="fill:none;stroke:black;"/>
   <text width="162" height="20" x="827" y="2136" style="fill:black;" font-family="Arial" font-size="16px">points_bp</text>
   <rect width="162" height="20" x="822" y="2142" style="fill:none;stroke:black;"/>
   <text width="162" height="20" x="827" y="2156" style="fill:black;" font-family="Arial" font-size="16px">comp_id</text>
   <rect width="162" height="20" x="822" y="2162" style="fill:none;stroke:black;"/>
   <text width="162" height="20" x="827" y="2176" style="fill:black;" font-family="Arial" font-size="16px">users_id</text>
   <rect width="169" height="20" x="127" y="1209" style="fill:#007;stroke:black;"/>
   <text width="169" height="20" x="132" y="1223" style="fill:#fff;" font-family="Arial" font-size="16px"> messenger_messages</text>
   <rect width="169" height="20" x="127" y="1229" style="fill:#aea;stroke:black;"/>
   <text width="169" height="20" x="132" y="1243" style="fill:black;" font-family="Arial" font-size="16px">id</text>
   <rect width="169" height="20" x="127" y="1249" style="fill:none;stroke:black;"/>
   <text width="169" height="20" x="132" y="1263" style="fill:black;" font-family="Arial" font-size="16px">body</text>
   <rect width="169" height="20" x="127" y="1269" style="fill:none;stroke:black;"/>
   <text width="169" height="20" x="132" y="1283" style="fill:black;" font-family="Arial" font-size="16px">headers</text>
   <rect width="169" height="20" x="127" y="1289" style="fill:none;stroke:black;"/>
   <text width="169" height="20" x="132" y="1303" style="fill:black;" font-family="Arial" font-size="16px">queue_name</text>
   <rect width="169" height="20" x="127" y="1309" style="fill:none;stroke:black;"/>
   <text width="169" height="20" x="132" y="1323" style="fill:black;" font-family="Arial" font-size="16px">created_at</text>
   <rect width="169" height="20" x="127" y="1329" style="fill:none;stroke:black;"/>
   <text width="169" height="20" x="132" y="1343" style="fill:black;" font-family="Arial" font-size="16px">available_at</text>
   <rect width="169" height="20" x="127" y="1349" style="fill:none;stroke:black;"/>
   <text width="169" height="20" x="132" y="1363" style="fill:black;" font-family="Arial" font-size="16px">delivered_at</text>
   <rect width="137" height="20" x="131" y="934" style="fill:#007;stroke:black;"/>
   <text width="137" height="20" x="136" y="948" style="fill:#fff;" font-family="Arial" font-size="16px"> processed_actions</text>
   <rect width="137" height="20" x="131" y="954" style="fill:#aea;stroke:black;"/>
   <text width="137" height="20" x="136" y="968" style="fill:black;" font-family="Arial" font-size="16px">id</text>
   <rect width="137" height="20" x="131" y="974" style="fill:none;stroke:black;"/>
   <text width="137" height="20" x="136" y="988" style="fill:black;" font-family="Arial" font-size="16px">action_id</text>
   <rect width="137" height="20" x="131" y="994" style="fill:none;stroke:black;"/>
   <text width="137" height="20" x="136" y="1008" style="fill:black;" font-family="Arial" font-size="16px">created_at</text>
   <rect width="117" height="20" x="129" y="323" style="fill:#007;stroke:black;"/>
   <text width="117" height="20" x="134" y="337" style="fill:#fff;" font-family="Arial" font-size="16px"> sessions_table</text>
   <rect width="117" height="20" x="129" y="343" style="fill:#aea;stroke:black;"/>
   <text width="117" height="20" x="134" y="357" style="fill:black;" font-family="Arial" font-size="16px">id_sessions</text>
   <rect width="117" height="20" x="129" y="363" style="fill:none;stroke:black;"/>
   <text width="117" height="20" x="134" y="377" style="fill:black;" font-family="Arial" font-size="16px">comp_id</text>
   <rect width="117" height="20" x="129" y="383" style="fill:none;stroke:black;"/>
   <text width="117" height="20" x="134" y="397" style="fill:black;" font-family="Arial" font-size="16px">all_sessions</text>
   <rect width="117" height="20" x="129" y="403" style="fill:none;stroke:black;"/>
   <text width="117" height="20" x="134" y="417" style="fill:black;" font-family="Arial" font-size="16px">sessions_name</text>
   <rect width="117" height="20" x="129" y="423" style="fill:none;stroke:black;"/>
   <text width="117" height="20" x="134" y="437" style="fill:black;" font-family="Arial" font-size="16px">grp</text>
   <rect width="117" height="20" x="129" y="443" style="fill:none;stroke:black;"/>
   <text width="117" height="20" x="134" y="457" style="fill:black;" font-family="Arial" font-size="16px">category</text>
   <rect width="117" height="20" x="129" y="463" style="fill:none;stroke:black;"/>
   <text width="117" height="20" x="134" y="477" style="fill:black;" font-family="Arial" font-size="16px">date_time</text>
   <rect width="117" height="20" x="129" y="483" style="fill:none;stroke:black;"/>
   <text width="117" height="20" x="134" y="497" style="fill:black;" font-family="Arial" font-size="16px">users_id</text>
   <rect width="114" height="20" x="137" y="100" style="fill:#007;stroke:black;"/>
   <text width="114" height="20" x="142" y="114" style="fill:#fff;" font-family="Arial" font-size="16px"> user_reg</text>
   <rect width="114" height="20" x="137" y="120" style="fill:#aea;stroke:black;"/>
   <text width="114" height="20" x="142" y="134" style="fill:black;" font-family="Arial" font-size="16px">id</text>
   <rect width="114" height="20" x="137" y="140" style="fill:none;stroke:black;"/>
   <text width="114" height="20" x="142" y="154" style="fill:black;" font-family="Arial" font-size="16px">user</text>
   <rect width="114" height="20" x="137" y="160" style="fill:none;stroke:black;"/>
   <text width="114" height="20" x="142" y="174" style="fill:black;" font-family="Arial" font-size="16px">password</text>
   <rect width="114" height="20" x="137" y="180" style="fill:none;stroke:black;"/>
   <text width="114" height="20" x="142" y="194" style="fill:black;" font-family="Arial" font-size="16px">status</text>
   <rect width="114" height="20" x="137" y="200" style="fill:none;stroke:black;"/>
   <text width="114" height="20" x="142" y="214" style="fill:black;" font-family="Arial" font-size="16px">nominations_id</text>
</svg>
